# xmcd
#
# Track frame offsets:
#	150
#	16425
#	33520
#	54720
#	66410
#	78592
#	94650
#	112410
#	125862
#	144150
#	162525
#	184945
#
# Disc length: 2638 seconds
#
# Revision: 1
# Processed by: cddbd v1.4PL0 Copyright (c) Steve Scherf et al.
# Submitted via: EasyCDDAExtractor 6.2.0.3
#
DISCID=b50a4c0c
DTITLE=The Beautiful South - The Carry On Continues...
DYEAR=1996
DGENRE=Pop
TTITLE0=Rotterdam
TTITLE1=Good As Gold
TTITLE2=Have Fun
TTITLE3=Everybody's Talkin'
TTITLE4=Foundations
TTITLE5=Old Red Eyes
TTITLE6=Artificial Flowers
TTITLE7=A Little Time
TTITLE8=Mirror
TTITLE9=Song For Whoever
TTITLE10=Alone
TTITLE11=You Keep It All In
EXTD=
EXTT0=
EXTT1=
EXTT2=
EXTT3=
EXTT4=
EXTT5=
EXTT6=
EXTT7=
EXTT8=
EXTT9=
EXTT10=
EXTT11=
PLAYORDER=
